<svg xmlns="http://www.w3.org/2000/svg" viewBox="0 0 32 32" width="32" height="32"><path d="M5 7.5A2.5 2.5 0 0 1 7.5 5h4A2.5 2.5 0 0 1 14 7.5v4a2.5 2.5 0 0 1-2.5 2.5h-4A2.5 2.5 0 0 1 5 11.5ZM18 7.5A2.5 2.5 0 0 1 20.5 5h4A2.5 2.5 0 0 1 27 7.5v4a2.5 2.5 0 0 1-2.5 2.5h-4a2.5 2.5 0 0 1-2.5-2.5ZM5 20.5A2.5 2.5 0 0 1 7.5 18h4a2.5 2.5 0 0 1 2.5 2.5v4a2.5 2.5 0 0 1-2.5 2.5h-4A2.5 2.5 0 0 1 5 24.5Z" fill="currentColor"/><path d="M18 20.5a2.5 2.5 0 0 1 2.5-2.5h4a2.5 2.5 0 0 1 2.5 2.5v4a2.5 2.5 0 0 1-2.5 2.5h-4a2.5 2.5 0 0 1-2.5-2.5Z" fill="currentColor" opacity=".5"/></svg>
