<svg xmlns="http://www.w3.org/2000/svg" viewBox="0 0 96 96" width="96" height="96">
<defs>
  <linearGradient id="army-bg" x1="0" y1="0" x2="0" y2="1"><stop offset="0" stop-color="#968f48"/><stop offset=".55" stop-color="#7d7413"/><stop offset="1" stop-color="#524900"/></linearGradient>
  <radialGradient id="army-hl" cx=".25" cy=".12" r=".75"><stop offset="0" stop-color="#fff" stop-opacity=".38"/><stop offset=".6" stop-color="#fff" stop-opacity="0"/></radialGradient>
  <filter id="army-sh" x="-20%" y="-20%" width="140%" height="150%"><feDropShadow dx="0" dy="1.6" stdDeviation="1.1" flood-color="#2a1408" flood-opacity=".32"/></filter>
  <filter id="army-sh2" x="-20%" y="-20%" width="140%" height="150%"><feDropShadow dx="0" dy="2.4" stdDeviation="1.8" flood-color="#2a1408" flood-opacity=".30"/></filter>
  <clipPath id="army-clip"><rect x="2" y="2" width="92" height="92" rx="24"/></clipPath>
</defs>
<rect x="2" y="2" width="92" height="92" rx="24" fill="url(#army-bg)"/>
<g clip-path="url(#army-clip)">

  <circle cx="16" cy="14" r="1.2" fill="#fff6e3" opacity="0.7"/><circle cx="82" cy="16" r="1" fill="#fff6e3" opacity="0.6"/><path d="M76 20.8Q76.576 23.424 79.2 24Q76.576 24.576 76 27.2Q75.424 24.576 72.8 24Q75.424 23.424 76 20.8Z" fill="#fff6e3" opacity="0.85"/>
  <g filter="url(#army-sh)">
     <path d="M-2 66H98V100H-2Z" fill="#efe0bd"/>
     <path d="M-2 78H98M24 66v34M72 66v34" stroke="#6b5f35" stroke-width="1.3" opacity=".5"/>
     <path d="M-2 90H98" stroke="#6b5f35" stroke-width="3.4" opacity=".55"/>
     <path d="M-2 90H98" stroke="#efe0bd" stroke-width="1.3" stroke-dasharray="3 3"/>
     <circle cx="48" cy="78" r="5.5" fill="#efe0bd" stroke="#6b5f35" stroke-width="1.3" stroke-opacity=".5"/></g>
  <g filter="url(#army-sh)"><g transform="rotate(-12 30 56)">
     <rect x="17" y="32" width="26" height="34" rx="5" fill="#3b6fd0"/>
     <rect x="17" y="58" width="26" height="8" rx="4" fill="#2b54a8"/>
     <rect x="21" y="36" width="18" height="20" rx="3" fill="none" stroke="#9cc0ff" stroke-width="1.6" opacity=".8"/>
     <path d="M30 39.5l6 6.5-6 6.5-6-6.5Z" fill="none" stroke="#9cc0ff" stroke-width="1.6" stroke-linejoin="round" opacity=".85"/><circle cx="30" cy="46" r="1.6" fill="#9cc0ff"/></g></g>
  <g filter="url(#army-sh2)"><g transform="rotate(5 58 54)">
     <rect x="40" y="22" width="34" height="46" rx="6" fill="#fff6e3"/>
     <rect x="40" y="58" width="34" height="10" rx="5" fill="#f3e3c3"/>
     <rect x="44" y="26" width="26" height="30" rx="3.5" fill="none" stroke="#e4513d" stroke-width="2"/>
     <path d="M57 30.5l2.1 4.3 4.7.7-3.4 3.3.8 4.7-4.2-2.2-4.2 2.2.8-4.7-3.4-3.3 4.7-.7Z" fill="#e4513d"/>
     <path d="M50 46.5l7 3.2 7-3.2M50 51l7 3.2 7-3.2" fill="none" stroke="#df9a1c" stroke-width="2.2" stroke-linecap="round" stroke-linejoin="round"/></g></g>
  <g filter="url(#army-sh)">
     <path d="M80 70V40" stroke="#6b4a2a" stroke-width="2" stroke-linecap="round"/>
     <path d="M81 41c4-1.5 7 .5 11-.5v9c-4 1-7-1-11 .5Z" fill="#e4513d"/>
     <circle cx="80" cy="39.5" r="1.6" fill="#f6b934"/></g>

<rect x="2" y="2" width="92" height="92" fill="url(#army-hl)"/>
</g>
<rect x="3" y="3" width="90" height="90" rx="23" fill="none" stroke="#fff" stroke-opacity=".35" stroke-width="1.5"/>
<rect x="2.5" y="2.5" width="91" height="91" rx="23.5" fill="none" stroke="#000" stroke-opacity=".10" stroke-width="1"/>
</svg>
